<?xml version="1.0" encoding="utf-8"?>
<!-- Generator: Adobe Illustrator 15.1.0, SVG Export Plug-In . SVG Version: 6.00 Build 0)  -->
<!DOCTYPE svg PUBLIC "-//W3C//DTD SVG 1.1//EN" "http://www.w3.org/Graphics/SVG/1.1/DTD/svg11.dtd">
<svg version="1.1" xmlns="http://www.w3.org/2000/svg" xmlns:xlink="http://www.w3.org/1999/xlink" x="0px" y="0px"
	 width="453.543px" height="566.929px" viewBox="0 0 453.543 566.929" enable-background="new 0 0 453.543 566.929"
	 xml:space="preserve">
<g id="background">
</g>
<g id="objects">
	<g>
		<g opacity="0.78">
			<ellipse fill="#FFFFFF" cx="226.772" cy="549.681" rx="95.827" ry="15.907"/>
			<path fill="#FEFEFE" d="M321.375,549.681c0,8.66-42.348,15.681-94.586,15.681c-52.242,0-94.588-7.021-94.588-15.681
				S174.547,534,226.789,534C279.027,534,321.375,541.021,321.375,549.681z"/>
			<ellipse fill="#FDFDFD" cx="226.806" cy="549.681" rx="93.348" ry="15.454"/>
			<ellipse fill="#FCFCFC" cx="226.822" cy="549.681" rx="92.108" ry="15.229"/>
			<ellipse fill="#FBFBFB" cx="226.838" cy="549.681" rx="90.869" ry="15.002"/>
			<ellipse fill="#FAFAFA" cx="226.855" cy="549.681" rx="89.629" ry="14.775"/>
			<ellipse fill="#F9F9F9" cx="226.872" cy="549.681" rx="88.39" ry="14.55"/>
			<ellipse fill="#F8F8F8" cx="226.888" cy="549.681" rx="87.15" ry="14.322"/>
			<ellipse fill="#F7F7F7" cx="226.905" cy="549.681" rx="85.91" ry="14.097"/>
			<ellipse fill="#F6F6F6" cx="226.921" cy="549.681" rx="84.67" ry="13.87"/>
			<ellipse fill="#F5F5F5" cx="226.938" cy="549.681" rx="83.431" ry="13.644"/>
			<ellipse fill="#F4F4F4" cx="226.955" cy="549.681" rx="82.191" ry="13.418"/>
			<ellipse fill="#F3F3F3" cx="226.972" cy="549.681" rx="80.952" ry="13.191"/>
			<ellipse fill="#F2F2F2" cx="226.989" cy="549.681" rx="79.712" ry="12.965"/>
			<ellipse fill="#F1F1F1" cx="227.004" cy="549.681" rx="78.473" ry="12.738"/>
			<ellipse fill="#F0F0F0" cx="227.021" cy="549.681" rx="77.233" ry="12.513"/>
			<ellipse fill="#EFEFEF" cx="227.038" cy="549.681" rx="75.994" ry="12.285"/>
			<ellipse fill="#EEEEEE" cx="227.055" cy="549.681" rx="74.754" ry="12.06"/>
			<ellipse fill="#EDEDED" cx="227.072" cy="549.681" rx="73.515" ry="11.834"/>
			<ellipse fill="#ECECEC" cx="227.088" cy="549.681" rx="72.275" ry="11.607"/>
			<ellipse fill="#EBEBEB" cx="227.104" cy="549.681" rx="71.036" ry="11.381"/>
			<ellipse fill="#EAEAEA" cx="227.122" cy="549.681" rx="69.796" ry="11.154"/>
			<ellipse fill="#E9E9E9" cx="227.139" cy="549.681" rx="68.557" ry="10.928"/>
			<ellipse fill="#E8E8E8" cx="227.154" cy="549.681" rx="67.317" ry="10.701"/>
			<ellipse fill="#E7E7E7" cx="227.171" cy="549.681" rx="66.077" ry="10.476"/>
			<ellipse fill="#E6E6E6" cx="227.188" cy="549.681" rx="64.838" ry="10.249"/>
			<ellipse fill="#E5E5E5" cx="227.205" cy="549.681" rx="63.598" ry="10.022"/>
			<ellipse fill="#E4E4E4" cx="227.221" cy="549.681" rx="62.359" ry="9.797"/>
			<ellipse fill="#E3E3E3" cx="227.238" cy="549.681" rx="61.12" ry="9.57"/>
			<ellipse fill="#E2E2E2" cx="227.255" cy="549.681" rx="59.88" ry="9.344"/>
			<ellipse fill="#E2E2E2" cx="227.271" cy="549.681" rx="58.64" ry="9.117"/>
			<ellipse fill="#E1E1E1" cx="227.288" cy="549.681" rx="57.401" ry="8.892"/>
			<ellipse fill="#E0E0E0" cx="227.304" cy="549.681" rx="56.162" ry="8.664"/>
			<ellipse fill="#DFDFDF" cx="227.321" cy="549.681" rx="54.921" ry="8.438"/>
			<ellipse fill="#DEDEDE" cx="227.337" cy="549.681" rx="53.682" ry="8.212"/>
			<ellipse fill="#DDDDDD" cx="227.354" cy="549.681" rx="52.442" ry="7.985"/>
			<ellipse fill="#DCDCDC" cx="227.371" cy="549.681" rx="51.203" ry="7.76"/>
			<ellipse fill="#DBDBDB" cx="227.388" cy="549.681" rx="49.964" ry="7.533"/>
			<ellipse fill="#DADADA" cx="227.404" cy="549.681" rx="48.724" ry="7.307"/>
			<ellipse fill="#D9D9D9" cx="227.421" cy="549.681" rx="47.484" ry="7.08"/>
			<ellipse fill="#D8D8D8" cx="227.437" cy="549.681" rx="46.245" ry="6.854"/>
			<ellipse fill="#D7D7D7" cx="227.454" cy="549.681" rx="45.005" ry="6.628"/>
			<ellipse fill="#D6D6D6" cx="227.471" cy="549.681" rx="43.766" ry="6.401"/>
			<ellipse fill="#D5D5D5" cx="227.487" cy="549.681" rx="42.526" ry="6.176"/>
			<ellipse fill="#D4D4D4" cx="227.504" cy="549.681" rx="41.287" ry="5.948"/>
			<ellipse fill="#D3D3D3" cx="227.521" cy="549.681" rx="40.047" ry="5.723"/>
			<ellipse fill="#D2D2D2" cx="227.537" cy="549.681" rx="38.808" ry="5.496"/>
			<ellipse fill="#D1D1D1" cx="227.554" cy="549.681" rx="37.568" ry="5.271"/>
			<ellipse fill="#D0D0D0" cx="227.571" cy="549.681" rx="36.329" ry="5.043"/>
			<ellipse fill="#CFCFCF" cx="227.587" cy="549.681" rx="35.089" ry="4.817"/>
			<ellipse fill="#CECECE" cx="227.604" cy="549.681" rx="33.85" ry="4.591"/>
			<ellipse fill="#CDCDCD" cx="227.621" cy="549.681" rx="32.61" ry="4.364"/>
			<ellipse fill="#CCCCCC" cx="227.637" cy="549.681" rx="31.37" ry="4.139"/>
			<ellipse fill="#CBCBCB" cx="227.653" cy="549.681" rx="30.131" ry="3.912"/>
			<ellipse fill="#CACACA" cx="227.67" cy="549.681" rx="28.891" ry="3.686"/>
			<ellipse fill="#C9C9C9" cx="227.687" cy="549.681" rx="27.652" ry="3.459"/>
			<ellipse fill="#C8C8C8" cx="227.703" cy="549.681" rx="26.412" ry="3.233"/>
			<ellipse fill="#C7C7C7" cx="227.72" cy="549.681" rx="25.172" ry="3.007"/>
			<ellipse fill="#C6C6C6" cx="227.737" cy="549.681" rx="23.933" ry="2.78"/>
		</g>
		<g>
			<ellipse fill="#6A686A" cx="199.977" cy="384.64" rx="1.259" ry="1.1"/>
			<g>
				<path fill="none" d="M166.593,416.499"/>
				<line fill="#4FB9CA" x1="149.643" y1="371.945" x2="166.593" y2="416.499"/>
				<linearGradient id="SVGID_1_" gradientUnits="userSpaceOnUse" x1="149.6426" y1="383.0874" x2="168.4004" y2="383.0874">
					<stop  offset="0.2659" style="stop-color:#F15A29"/>
					<stop  offset="0.6791" style="stop-color:#EF4136"/>
					<stop  offset="0.7644" style="stop-color:#E83C35"/>
					<stop  offset="0.8837" style="stop-color:#D62F31"/>
					<stop  offset="1" style="stop-color:#BE1E2D"/>
				</linearGradient>
				<polygon fill="url(#SVGID_1_)" points="166.593,416.499 168.4,349.677 149.643,371.945 				"/>
				<linearGradient id="SVGID_2_" gradientUnits="userSpaceOnUse" x1="120.2734" y1="339.6914" x2="168.4004" y2="339.6914">
					<stop  offset="0" style="stop-color:#F7941E"/>
					<stop  offset="0.4224" style="stop-color:#F7941E"/>
					<stop  offset="0.5598" style="stop-color:#F68E1F"/>
					<stop  offset="0.7442" style="stop-color:#F57D22"/>
					<stop  offset="0.9544" style="stop-color:#F26128"/>
					<stop  offset="1" style="stop-color:#F15A29"/>
				</linearGradient>
				<polygon fill="url(#SVGID_2_)" points="168.4,349.677 149.643,371.945 120.273,307.438 				"/>
				<linearGradient id="SVGID_3_" gradientUnits="userSpaceOnUse" x1="166.5928" y1="383.0874" x2="209.1191" y2="383.0874">
					<stop  offset="0" style="stop-color:#EE2A7B"/>
					<stop  offset="0.5377" style="stop-color:#EE2A7B"/>
					<stop  offset="0.7363" style="stop-color:#CE2671"/>
					<stop  offset="1" style="stop-color:#9E1F63"/>
				</linearGradient>
				<polygon fill="url(#SVGID_3_)" points="166.593,416.499 168.4,349.677 209.119,385.188 				"/>
				<linearGradient id="SVGID_4_" gradientUnits="userSpaceOnUse" x1="120.2734" y1="318.3433" x2="168.4004" y2="318.3433">
					<stop  offset="0.4385" style="stop-color:#00A79D"/>
					<stop  offset="0.5261" style="stop-color:#009798"/>
					<stop  offset="0.7202" style="stop-color:#00788F"/>
					<stop  offset="0.8851" style="stop-color:#006589"/>
					<stop  offset="1" style="stop-color:#005E87"/>
				</linearGradient>
				<polygon fill="url(#SVGID_4_)" points="168.4,349.677 167.545,287.009 120.273,307.438 				"/>
				<linearGradient id="SVGID_5_" gradientUnits="userSpaceOnUse" x1="90.4971" y1="276.7339" x2="167.5449" y2="276.7339">
					<stop  offset="0.2659" style="stop-color:#F15A29"/>
					<stop  offset="0.6791" style="stop-color:#EF4136"/>
					<stop  offset="0.7644" style="stop-color:#E83C35"/>
					<stop  offset="0.8837" style="stop-color:#D62F31"/>
					<stop  offset="1" style="stop-color:#BE1E2D"/>
				</linearGradient>
				<polygon fill="url(#SVGID_5_)" points="167.545,287.009 120.273,307.438 90.497,246.03 				"/>
				<linearGradient id="SVGID_6_" gradientUnits="userSpaceOnUse" x1="167.5449" y1="318.3433" x2="198.6045" y2="318.3433">
					<stop  offset="0.2659" style="stop-color:#F15A29"/>
					<stop  offset="0.6791" style="stop-color:#EF4136"/>
					<stop  offset="0.7644" style="stop-color:#E83C35"/>
					<stop  offset="0.8837" style="stop-color:#D62F31"/>
					<stop  offset="1" style="stop-color:#BE1E2D"/>
				</linearGradient>
				<polygon fill="url(#SVGID_6_)" points="168.4,349.677 167.545,287.009 198.604,327.731 				"/>
				<linearGradient id="SVGID_7_" gradientUnits="userSpaceOnUse" x1="90.4971" y1="265.3447" x2="167.5449" y2="265.3447">
					<stop  offset="0" style="stop-color:#F7941E"/>
					<stop  offset="0.4224" style="stop-color:#F7941E"/>
					<stop  offset="0.5598" style="stop-color:#F68E1F"/>
					<stop  offset="0.7442" style="stop-color:#F57D22"/>
					<stop  offset="0.9544" style="stop-color:#F26128"/>
					<stop  offset="1" style="stop-color:#F15A29"/>
				</linearGradient>
				<polygon fill="url(#SVGID_7_)" points="167.545,287.009 140.104,243.68 90.497,246.03 				"/>
				<linearGradient id="SVGID_8_" gradientUnits="userSpaceOnUse" x1="86.1797" y1="224.9106" x2="140.1035" y2="224.9106">
					<stop  offset="0" style="stop-color:#EE2A7B"/>
					<stop  offset="0.5377" style="stop-color:#EE2A7B"/>
					<stop  offset="0.7363" style="stop-color:#CE2671"/>
					<stop  offset="1" style="stop-color:#9E1F63"/>
				</linearGradient>
				<polygon fill="url(#SVGID_8_)" points="140.104,243.68 90.497,246.03 86.18,203.792 				"/>
				<linearGradient id="SVGID_9_" gradientUnits="userSpaceOnUse" x1="140.1035" y1="265.3447" x2="237.1113" y2="265.3447">
					<stop  offset="0.4385" style="stop-color:#00A79D"/>
					<stop  offset="0.5261" style="stop-color:#009798"/>
					<stop  offset="0.7202" style="stop-color:#00788F"/>
					<stop  offset="0.8851" style="stop-color:#006589"/>
					<stop  offset="1" style="stop-color:#005E87"/>
				</linearGradient>
				<polygon fill="url(#SVGID_9_)" points="167.545,287.009 140.104,243.68 237.111,249.22 				"/>
				<linearGradient id="SVGID_10_" gradientUnits="userSpaceOnUse" x1="86.1797" y1="197.333" x2="140.1035" y2="197.333">
					<stop  offset="0.4385" style="stop-color:#00A79D"/>
					<stop  offset="0.5261" style="stop-color:#009798"/>
					<stop  offset="0.7202" style="stop-color:#00788F"/>
					<stop  offset="0.8851" style="stop-color:#006589"/>
					<stop  offset="1" style="stop-color:#005E87"/>
				</linearGradient>
				<polygon fill="url(#SVGID_10_)" points="140.104,243.68 105.771,150.986 86.18,203.792 				"/>
				<line fill="#76C1CA" x1="105.771" y1="150.986" x2="86.18" y2="203.792"/>
				<linearGradient id="SVGID_11_" gradientUnits="userSpaceOnUse" x1="105.7705" y1="197.333" x2="155.5645" y2="197.333">
					<stop  offset="0.2659" style="stop-color:#F15A29"/>
					<stop  offset="0.6791" style="stop-color:#EF4136"/>
					<stop  offset="0.7644" style="stop-color:#E83C35"/>
					<stop  offset="0.8837" style="stop-color:#D62F31"/>
					<stop  offset="1" style="stop-color:#BE1E2D"/>
				</linearGradient>
				<polygon fill="url(#SVGID_11_)" points="140.104,243.68 105.771,150.986 155.564,197.968 				"/>
				<line fill="#69BACA" x1="105.771" y1="150.986" x2="140.674" y2="119.076"/>
				<path fill="none" d="M140.674,119.076"/>
				<linearGradient id="SVGID_12_" gradientUnits="userSpaceOnUse" x1="105.7705" y1="135.0308" x2="196.9053" y2="135.0308">
					<stop  offset="0" style="stop-color:#EE2A7B"/>
					<stop  offset="0.5377" style="stop-color:#EE2A7B"/>
					<stop  offset="0.7363" style="stop-color:#CE2671"/>
					<stop  offset="1" style="stop-color:#9E1F63"/>
				</linearGradient>
				<polygon fill="url(#SVGID_12_)" points="105.771,150.986 140.674,119.076 196.905,132.474 				"/>
				<linearGradient id="SVGID_13_" gradientUnits="userSpaceOnUse" x1="140.6738" y1="115.7754" x2="196.9053" y2="115.7754">
					<stop  offset="0.4385" style="stop-color:#00A79D"/>
					<stop  offset="0.5261" style="stop-color:#009798"/>
					<stop  offset="0.7202" style="stop-color:#00788F"/>
					<stop  offset="0.8851" style="stop-color:#006589"/>
					<stop  offset="1" style="stop-color:#005E87"/>
				</linearGradient>
				<polygon fill="url(#SVGID_13_)" points="178.985,99.077 196.905,132.474 140.674,119.076 				"/>
				<linearGradient id="SVGID_14_" gradientUnits="userSpaceOnUse" x1="105.7705" y1="165.2212" x2="196.9053" y2="165.2212">
					<stop  offset="0.4385" style="stop-color:#00A79D"/>
					<stop  offset="0.5261" style="stop-color:#009798"/>
					<stop  offset="0.7202" style="stop-color:#00788F"/>
					<stop  offset="0.8851" style="stop-color:#006589"/>
					<stop  offset="1" style="stop-color:#005E87"/>
				</linearGradient>
				<polygon fill="url(#SVGID_14_)" points="196.905,132.474 155.564,197.968 105.771,150.986 				"/>
				<linearGradient id="SVGID_15_" gradientUnits="userSpaceOnUse" x1="140.1035" y1="223.5942" x2="237.1113" y2="223.5942">
					<stop  offset="0" style="stop-color:#F7941E"/>
					<stop  offset="0.4224" style="stop-color:#F7941E"/>
					<stop  offset="0.5598" style="stop-color:#F68E1F"/>
					<stop  offset="0.7442" style="stop-color:#F57D22"/>
					<stop  offset="0.9544" style="stop-color:#F26128"/>
					<stop  offset="1" style="stop-color:#F15A29"/>
				</linearGradient>
				<polygon fill="url(#SVGID_15_)" points="155.564,197.968 237.111,249.22 140.104,243.68 				"/>
				<linearGradient id="SVGID_16_" gradientUnits="userSpaceOnUse" x1="167.5449" y1="288.4756" x2="237.1113" y2="288.4756">
					<stop  offset="0" style="stop-color:#F7941E"/>
					<stop  offset="0.4224" style="stop-color:#F7941E"/>
					<stop  offset="0.5598" style="stop-color:#F68E1F"/>
					<stop  offset="0.7442" style="stop-color:#F57D22"/>
					<stop  offset="0.9544" style="stop-color:#F26128"/>
					<stop  offset="1" style="stop-color:#F15A29"/>
				</linearGradient>
				<polygon fill="url(#SVGID_16_)" points="237.111,249.22 198.604,327.731 167.545,287.009 				"/>
				<linearGradient id="SVGID_17_" gradientUnits="userSpaceOnUse" x1="168.4004" y1="356.4595" x2="209.1191" y2="356.4595">
					<stop  offset="0.4385" style="stop-color:#00A79D"/>
					<stop  offset="0.5261" style="stop-color:#009798"/>
					<stop  offset="0.7202" style="stop-color:#00788F"/>
					<stop  offset="0.8851" style="stop-color:#006589"/>
					<stop  offset="1" style="stop-color:#005E87"/>
				</linearGradient>
				<polygon fill="url(#SVGID_17_)" points="198.604,327.731 209.119,385.188 168.4,349.677 				"/>
				<linearGradient id="SVGID_18_" gradientUnits="userSpaceOnUse" x1="198.6045" y1="372.4507" x2="286.291" y2="372.4507">
					<stop  offset="0.2659" style="stop-color:#F15A29"/>
					<stop  offset="0.6791" style="stop-color:#EF4136"/>
					<stop  offset="0.7644" style="stop-color:#E83C35"/>
					<stop  offset="0.8837" style="stop-color:#D62F31"/>
					<stop  offset="1" style="stop-color:#BE1E2D"/>
				</linearGradient>
				<polygon fill="url(#SVGID_18_)" points="286.291,417.171 209.119,385.188 198.604,327.731 				"/>
				<linearGradient id="SVGID_19_" gradientUnits="userSpaceOnUse" x1="198.6045" y1="370.6743" x2="286.291" y2="370.6743">
					<stop  offset="0" style="stop-color:#EE2A7B"/>
					<stop  offset="0.5377" style="stop-color:#EE2A7B"/>
					<stop  offset="0.7363" style="stop-color:#CE2671"/>
					<stop  offset="1" style="stop-color:#9E1F63"/>
				</linearGradient>
				<polygon fill="url(#SVGID_19_)" points="286.291,417.171 242.805,324.177 198.604,327.731 				"/>
				<linearGradient id="SVGID_20_" gradientUnits="userSpaceOnUse" x1="198.6045" y1="288.4756" x2="242.8047" y2="288.4756">
					<stop  offset="0.4385" style="stop-color:#00A79D"/>
					<stop  offset="0.5261" style="stop-color:#009798"/>
					<stop  offset="0.7202" style="stop-color:#00788F"/>
					<stop  offset="0.8851" style="stop-color:#006589"/>
					<stop  offset="1" style="stop-color:#005E87"/>
				</linearGradient>
				<polygon fill="url(#SVGID_20_)" points="242.805,324.177 198.604,327.731 237.111,249.22 				"/>
				<linearGradient id="SVGID_21_" gradientUnits="userSpaceOnUse" x1="242.8047" y1="370.6743" x2="297.8359" y2="370.6743">
					<stop  offset="0.2659" style="stop-color:#F15A29"/>
					<stop  offset="0.6791" style="stop-color:#EF4136"/>
					<stop  offset="0.7644" style="stop-color:#E83C35"/>
					<stop  offset="0.8837" style="stop-color:#D62F31"/>
					<stop  offset="1" style="stop-color:#BE1E2D"/>
				</linearGradient>
				<polygon fill="url(#SVGID_21_)" points="286.291,417.171 242.805,324.177 297.836,379.78 				"/>
				<linearGradient id="SVGID_22_" gradientUnits="userSpaceOnUse" x1="237.1113" y1="273.2925" x2="286.2803" y2="273.2925">
					<stop  offset="0" style="stop-color:#F7941E"/>
					<stop  offset="0.4224" style="stop-color:#F7941E"/>
					<stop  offset="0.5598" style="stop-color:#F68E1F"/>
					<stop  offset="0.7442" style="stop-color:#F57D22"/>
					<stop  offset="0.9544" style="stop-color:#F26128"/>
					<stop  offset="1" style="stop-color:#F15A29"/>
				</linearGradient>
				<polygon fill="url(#SVGID_22_)" points="242.805,324.177 286.28,222.408 237.111,249.22 				"/>
				<linearGradient id="SVGID_23_" gradientUnits="userSpaceOnUse" x1="155.5645" y1="223.5942" x2="286.2803" y2="223.5942">
					<stop  offset="0.2659" style="stop-color:#F15A29"/>
					<stop  offset="0.6791" style="stop-color:#EF4136"/>
					<stop  offset="0.7644" style="stop-color:#E83C35"/>
					<stop  offset="0.8837" style="stop-color:#D62F31"/>
					<stop  offset="1" style="stop-color:#BE1E2D"/>
				</linearGradient>
				<polygon fill="url(#SVGID_23_)" points="286.28,222.408 237.111,249.22 155.564,197.968 				"/>
				<linearGradient id="SVGID_24_" gradientUnits="userSpaceOnUse" x1="242.8047" y1="273.2925" x2="295.4883" y2="273.2925">
					<stop  offset="0" style="stop-color:#EE2A7B"/>
					<stop  offset="0.5377" style="stop-color:#EE2A7B"/>
					<stop  offset="0.7363" style="stop-color:#CE2671"/>
					<stop  offset="1" style="stop-color:#9E1F63"/>
				</linearGradient>
				<polygon fill="url(#SVGID_24_)" points="242.805,324.177 286.28,222.408 295.488,269.486 				"/>
				<linearGradient id="SVGID_25_" gradientUnits="userSpaceOnUse" x1="155.5645" y1="183.3306" x2="286.2803" y2="183.3306">
					<stop  offset="0.4385" style="stop-color:#00A79D"/>
					<stop  offset="0.5261" style="stop-color:#009798"/>
					<stop  offset="0.7202" style="stop-color:#00788F"/>
					<stop  offset="0.8851" style="stop-color:#006589"/>
					<stop  offset="1" style="stop-color:#005E87"/>
				</linearGradient>
				<polygon fill="url(#SVGID_25_)" points="286.28,222.408 237.885,144.253 155.564,197.968 				"/>
				<linearGradient id="SVGID_26_" gradientUnits="userSpaceOnUse" x1="155.5645" y1="165.2212" x2="237.8848" y2="165.2212">
					<stop  offset="0" style="stop-color:#EE2A7B"/>
					<stop  offset="0.5377" style="stop-color:#EE2A7B"/>
					<stop  offset="0.7363" style="stop-color:#CE2671"/>
					<stop  offset="1" style="stop-color:#9E1F63"/>
				</linearGradient>
				<polygon fill="url(#SVGID_26_)" points="237.885,144.253 155.564,197.968 196.905,132.474 				"/>
				<linearGradient id="SVGID_27_" gradientUnits="userSpaceOnUse" x1="237.8848" y1="183.3306" x2="321.3535" y2="183.3306">
					<stop  offset="0" style="stop-color:#EE2A7B"/>
					<stop  offset="0.5377" style="stop-color:#EE2A7B"/>
					<stop  offset="0.7363" style="stop-color:#CE2671"/>
					<stop  offset="1" style="stop-color:#9E1F63"/>
				</linearGradient>
				<polygon fill="url(#SVGID_27_)" points="286.28,222.408 237.885,144.253 321.354,209.423 				"/>
				<linearGradient id="SVGID_28_" gradientUnits="userSpaceOnUse" x1="196.9053" y1="118.3638" x2="237.8848" y2="118.3638">
					<stop  offset="0.2659" style="stop-color:#F15A29"/>
					<stop  offset="0.6791" style="stop-color:#EF4136"/>
					<stop  offset="0.7644" style="stop-color:#E83C35"/>
					<stop  offset="0.8837" style="stop-color:#D62F31"/>
					<stop  offset="1" style="stop-color:#BE1E2D"/>
				</linearGradient>
				<polygon fill="url(#SVGID_28_)" points="237.885,144.253 217.73,92.474 196.905,132.474 				"/>
				<linearGradient id="SVGID_29_" gradientUnits="userSpaceOnUse" x1="178.9854" y1="112.4741" x2="217.7305" y2="112.4741">
					<stop  offset="0" style="stop-color:#F7941E"/>
					<stop  offset="0.4224" style="stop-color:#F7941E"/>
					<stop  offset="0.5598" style="stop-color:#F68E1F"/>
					<stop  offset="0.7442" style="stop-color:#F57D22"/>
					<stop  offset="0.9544" style="stop-color:#F26128"/>
					<stop  offset="1" style="stop-color:#F15A29"/>
				</linearGradient>
				<polygon fill="url(#SVGID_29_)" points="217.73,92.474 196.905,132.474 178.985,99.077 				"/>
				<linearGradient id="SVGID_30_" gradientUnits="userSpaceOnUse" x1="217.7305" y1="126.8872" x2="353.915" y2="126.8872">
					<stop  offset="0" style="stop-color:#F7941E"/>
					<stop  offset="0.4224" style="stop-color:#F7941E"/>
					<stop  offset="0.5598" style="stop-color:#F68E1F"/>
					<stop  offset="0.7442" style="stop-color:#F57D22"/>
					<stop  offset="0.9544" style="stop-color:#F26128"/>
					<stop  offset="1" style="stop-color:#F15A29"/>
				</linearGradient>
				<polygon fill="url(#SVGID_30_)" points="237.885,144.253 217.73,92.474 353.915,161.3 				"/>
				<linearGradient id="SVGID_31_" gradientUnits="userSpaceOnUse" x1="217.7305" y1="126.8872" x2="353.915" y2="126.8872">
					<stop  offset="0.4385" style="stop-color:#00A79D"/>
					<stop  offset="0.5261" style="stop-color:#009798"/>
					<stop  offset="0.7202" style="stop-color:#00788F"/>
					<stop  offset="0.8851" style="stop-color:#006589"/>
					<stop  offset="1" style="stop-color:#005E87"/>
				</linearGradient>
				<polygon fill="url(#SVGID_31_)" points="276.32,99.623 353.915,161.3 217.73,92.474 				"/>
				<linearGradient id="SVGID_32_" gradientUnits="userSpaceOnUse" x1="237.8848" y1="176.8384" x2="353.915" y2="176.8384">
					<stop  offset="0.2659" style="stop-color:#F15A29"/>
					<stop  offset="0.6791" style="stop-color:#EF4136"/>
					<stop  offset="0.7644" style="stop-color:#E83C35"/>
					<stop  offset="0.8837" style="stop-color:#D62F31"/>
					<stop  offset="1" style="stop-color:#BE1E2D"/>
				</linearGradient>
				<polygon fill="url(#SVGID_32_)" points="353.915,161.3 321.354,209.423 237.885,144.253 				"/>
				<polygon fill="#4A48CA" points="321.354,209.423 295.488,269.486 286.28,222.408 				"/>
				<linearGradient id="SVGID_33_" gradientUnits="userSpaceOnUse" x1="242.8047" y1="324.6328" x2="297.8359" y2="324.6328">
					<stop  offset="0" style="stop-color:#F7941E"/>
					<stop  offset="0.4224" style="stop-color:#F7941E"/>
					<stop  offset="0.5598" style="stop-color:#F68E1F"/>
					<stop  offset="0.7442" style="stop-color:#F57D22"/>
					<stop  offset="0.9544" style="stop-color:#F26128"/>
					<stop  offset="1" style="stop-color:#F15A29"/>
				</linearGradient>
				<polygon fill="url(#SVGID_33_)" points="295.488,269.486 297.836,379.78 242.805,324.177 				"/>
				<line fill="#4A48CA" x1="286.291" y1="417.171" x2="297.836" y2="379.78"/>
				<path fill="none" d="M297.836,379.78"/>
				<line fill="#4A3FCA" x1="313.986" y1="343.188" x2="297.836" y2="379.78"/>
				<linearGradient id="SVGID_34_" gradientUnits="userSpaceOnUse" x1="295.4883" y1="324.6328" x2="313.9863" y2="324.6328">
					<stop  offset="0.4385" style="stop-color:#00A79D"/>
					<stop  offset="0.5261" style="stop-color:#009798"/>
					<stop  offset="0.7202" style="stop-color:#00788F"/>
					<stop  offset="0.8851" style="stop-color:#006589"/>
					<stop  offset="1" style="stop-color:#005E87"/>
				</linearGradient>
				<polygon fill="url(#SVGID_34_)" points="313.986,343.188 297.836,379.78 295.488,269.486 				"/>
				<linearGradient id="SVGID_35_" gradientUnits="userSpaceOnUse" x1="295.4883" y1="306.3369" x2="346.2471" y2="306.3369">
					<stop  offset="0" style="stop-color:#EE2A7B"/>
					<stop  offset="0.5377" style="stop-color:#EE2A7B"/>
					<stop  offset="0.7363" style="stop-color:#CE2671"/>
					<stop  offset="1" style="stop-color:#9E1F63"/>
				</linearGradient>
				<polygon fill="url(#SVGID_35_)" points="313.986,343.188 346.247,283.141 295.488,269.486 				"/>
				<linearGradient id="SVGID_36_" gradientUnits="userSpaceOnUse" x1="295.4883" y1="246.2822" x2="346.2471" y2="246.2822">
					<stop  offset="0.4385" style="stop-color:#00A79D"/>
					<stop  offset="0.5261" style="stop-color:#009798"/>
					<stop  offset="0.7202" style="stop-color:#00788F"/>
					<stop  offset="0.8851" style="stop-color:#006589"/>
					<stop  offset="1" style="stop-color:#005E87"/>
				</linearGradient>
				<polygon fill="url(#SVGID_36_)" points="346.247,283.141 295.488,269.486 321.354,209.423 				"/>
				<linearGradient id="SVGID_37_" gradientUnits="userSpaceOnUse" x1="321.3535" y1="246.2822" x2="364.418" y2="246.2822">
					<stop  offset="0.2659" style="stop-color:#F15A29"/>
					<stop  offset="0.6791" style="stop-color:#EF4136"/>
					<stop  offset="0.7644" style="stop-color:#E83C35"/>
					<stop  offset="0.8837" style="stop-color:#D62F31"/>
					<stop  offset="1" style="stop-color:#BE1E2D"/>
				</linearGradient>
				<polygon fill="url(#SVGID_37_)" points="346.247,283.141 364.418,244.943 321.354,209.423 				"/>
				<linearGradient id="SVGID_38_" gradientUnits="userSpaceOnUse" x1="321.3535" y1="203.1216" x2="364.418" y2="203.1216">
					<stop  offset="0" style="stop-color:#EE2A7B"/>
					<stop  offset="0.5377" style="stop-color:#EE2A7B"/>
					<stop  offset="0.7363" style="stop-color:#CE2671"/>
					<stop  offset="1" style="stop-color:#9E1F63"/>
				</linearGradient>
				<polygon fill="url(#SVGID_38_)" points="364.418,244.943 321.354,209.423 353.915,161.3 				"/>
				<linearGradient id="SVGID_39_" gradientUnits="userSpaceOnUse" x1="276.3203" y1="130.4614" x2="353.915" y2="130.4614">
					<stop  offset="0" style="stop-color:#EE2A7B"/>
					<stop  offset="0.5377" style="stop-color:#EE2A7B"/>
					<stop  offset="0.7363" style="stop-color:#CE2671"/>
					<stop  offset="1" style="stop-color:#9E1F63"/>
				</linearGradient>
				<polygon fill="url(#SVGID_39_)" points="321.979,124.853 353.915,161.3 276.32,99.623 				"/>
				<linearGradient id="SVGID_40_" gradientUnits="userSpaceOnUse" x1="209.123" y1="400.7437" x2="286.2949" y2="400.7437">
					<stop  offset="0" style="stop-color:#F7941E"/>
					<stop  offset="0.4224" style="stop-color:#F7941E"/>
					<stop  offset="0.5598" style="stop-color:#F68E1F"/>
					<stop  offset="0.7442" style="stop-color:#F57D22"/>
					<stop  offset="0.9544" style="stop-color:#F26128"/>
					<stop  offset="1" style="stop-color:#F15A29"/>
				</linearGradient>
				<polygon fill="url(#SVGID_40_)" points="286.295,416.737 209.123,384.751 227.215,416.404 				"/>
				<linearGradient id="SVGID_41_" gradientUnits="userSpaceOnUse" x1="199.7275" y1="400.5776" x2="227.2148" y2="400.5776">
					<stop  offset="0" style="stop-color:#EE2A7B"/>
					<stop  offset="0.5377" style="stop-color:#EE2A7B"/>
					<stop  offset="0.7363" style="stop-color:#CE2671"/>
					<stop  offset="1" style="stop-color:#9E1F63"/>
				</linearGradient>
				<polygon fill="url(#SVGID_41_)" points="227.215,416.404 209.123,384.751 199.728,416.25 				"/>
				<linearGradient id="SVGID_42_" gradientUnits="userSpaceOnUse" x1="166.5928" y1="400.5015" x2="209.123" y2="400.5015">
					<stop  offset="0.4385" style="stop-color:#00A79D"/>
					<stop  offset="0.5261" style="stop-color:#009798"/>
					<stop  offset="0.7202" style="stop-color:#00788F"/>
					<stop  offset="0.8851" style="stop-color:#006589"/>
					<stop  offset="1" style="stop-color:#005E87"/>
				</linearGradient>
				<polygon fill="url(#SVGID_42_)" points="209.123,384.751 166.593,416.064 199.728,416.25 				"/>
				<linearGradient id="SVGID_43_" gradientUnits="userSpaceOnUse" x1="353.915" y1="202.1211" x2="367.3643" y2="202.1211">
					<stop  offset="0.4385" style="stop-color:#00A79D"/>
					<stop  offset="0.5261" style="stop-color:#009798"/>
					<stop  offset="0.7202" style="stop-color:#00788F"/>
					<stop  offset="0.8851" style="stop-color:#006589"/>
					<stop  offset="1" style="stop-color:#005E87"/>
				</linearGradient>
				<polygon fill="url(#SVGID_43_)" points="353.915,161.3 367.364,209.683 364.081,242.942 				"/>
			</g>
		</g>
		<g>
			<linearGradient id="SVGID_44_" gradientUnits="userSpaceOnUse" x1="221.2383" y1="31.6953" x2="240.0615" y2="31.6953">
				<stop  offset="0" style="stop-color:#EE2A7B"/>
				<stop  offset="0.5377" style="stop-color:#EE2A7B"/>
				<stop  offset="0.7363" style="stop-color:#CE2671"/>
				<stop  offset="1" style="stop-color:#9E1F63"/>
			</linearGradient>
			<path fill="url(#SVGID_44_)" d="M230.65,62.05c5.206,0,9.411-4.218,9.411-9.411V10.75c0-5.203-4.212-9.41-9.411-9.41
				c-5.195,0-9.412,4.212-9.412,9.41v41.889C221.238,57.839,225.455,62.05,230.65,62.05z"/>
			<linearGradient id="SVGID_45_" gradientUnits="userSpaceOnUse" x1="326.1768" y1="69.0474" x2="369.2559" y2="69.0474">
				<stop  offset="0.2659" style="stop-color:#F15A29"/>
				<stop  offset="0.6791" style="stop-color:#EF4136"/>
				<stop  offset="0.7644" style="stop-color:#E83C35"/>
				<stop  offset="0.8837" style="stop-color:#D62F31"/>
				<stop  offset="1" style="stop-color:#BE1E2D"/>
			</linearGradient>
			<path fill="url(#SVGID_45_)" d="M330.143,93.794c1.649,1.174,3.554,1.736,5.438,1.736c2.945,0,5.854-1.379,7.685-3.958
				l24.256-34.141c3.008-4.242,2.003-10.122-2.229-13.13c-4.229-3.008-10.104-2.014-13.122,2.219l-24.255,34.146
				C324.903,84.904,325.906,90.783,330.143,93.794z"/>
			<linearGradient id="SVGID_46_" gradientUnits="userSpaceOnUse" x1="392.3145" y1="167.3003" x2="450.6963" y2="167.3003">
				<stop  offset="0" style="stop-color:#005E87"/>
				<stop  offset="0.1149" style="stop-color:#006589"/>
				<stop  offset="0.2798" style="stop-color:#00788F"/>
				<stop  offset="0.4739" style="stop-color:#009798"/>
				<stop  offset="0.5615" style="stop-color:#00A79D"/>
			</linearGradient>
			<path fill="url(#SVGID_46_)" d="M404.824,183.077l39.552-13.778c4.912-1.716,7.506-7.082,5.792-11.991
				c-1.717-4.905-7.085-7.496-11.987-5.79l-39.55,13.785c-4.911,1.713-7.499,7.081-5.79,11.991c1.35,3.878,4.99,6.314,8.887,6.314
				C402.748,183.606,403.793,183.436,404.824,183.077z"/>
			<linearGradient id="SVGID_47_" gradientUnits="userSpaceOnUse" x1="84.2861" y1="69.0474" x2="127.373" y2="69.0474">
				<stop  offset="0" style="stop-color:#F7941E"/>
				<stop  offset="0.4224" style="stop-color:#F7941E"/>
				<stop  offset="0.5598" style="stop-color:#F68E1F"/>
				<stop  offset="0.7442" style="stop-color:#F57D22"/>
				<stop  offset="0.9544" style="stop-color:#F26128"/>
				<stop  offset="1" style="stop-color:#F15A29"/>
			</linearGradient>
			<path fill="url(#SVGID_47_)" d="M110.288,91.573c1.836,2.579,4.729,3.958,7.69,3.958c1.877,0,3.781-0.562,5.43-1.736
				c4.242-3.012,5.236-8.891,2.224-13.127l-24.265-34.146c-3.009-4.233-8.883-5.227-13.115-2.219
				c-4.237,3.008-5.237,8.888-2.229,13.13L110.288,91.573z"/>
			<linearGradient id="SVGID_48_" gradientUnits="userSpaceOnUse" x1="2.8472" y1="167.2993" x2="61.2295" y2="167.2993">
				<stop  offset="0.4385" style="stop-color:#00A79D"/>
				<stop  offset="0.5261" style="stop-color:#009798"/>
				<stop  offset="0.7202" style="stop-color:#00788F"/>
				<stop  offset="0.8851" style="stop-color:#006589"/>
				<stop  offset="1" style="stop-color:#005E87"/>
			</linearGradient>
			<path fill="url(#SVGID_48_)" d="M54.91,165.302l-39.551-13.785c-4.918-1.706-10.275,0.885-11.985,5.79
				c-1.711,4.909,0.884,10.275,5.785,11.991l39.553,13.778c1.03,0.359,2.066,0.529,3.102,0.529c3.893,0,7.533-2.436,8.889-6.32
				C62.413,172.383,59.829,167.015,54.91,165.302z"/>
		</g>
		<path fill="#2B2F3E" d="M279.997,420.973H173.542c-5.841,0-10.577,4.736-10.577,10.586c0,5.845,4.736,10.583,10.577,10.583
			h106.455c5.842,0,10.581-4.738,10.581-10.583C290.578,425.709,285.839,420.973,279.997,420.973z"/>
		<path fill="#2B2F3E" d="M273.104,445.996h-92.668c-5.845,0-10.586,4.733-10.586,10.589c0,5.848,4.741,10.586,10.586,10.586h92.668
			c5.849,0,10.59-4.738,10.59-10.586C283.693,450.729,278.952,445.996,273.104,445.996z"/>
		<path fill="#2B2F3E" d="M263.152,471.024h-72.765c-5.849,0-10.583,4.736-10.583,10.576c0,5.855,4.734,10.586,10.583,10.586h72.765
			c5.85,0,10.586-4.73,10.586-10.586C273.738,475.76,269.002,471.024,263.152,471.024z"/>
		<path fill="#2B2F3E" d="M226.768,516.631c13.329,0,24.694-8.295,29.284-19.993h-58.561
			C202.083,508.336,213.443,516.631,226.768,516.631z"/>
	</g>
</g>
</svg>
