<?xml version="1.0" encoding="iso-8859-1"?>
<!-- Generator: Adobe Illustrator 15.1.0, SVG Export Plug-In . SVG Version: 6.00 Build 0)  -->
<!DOCTYPE svg PUBLIC "-//W3C//DTD SVG 1.1//EN" "http://www.w3.org/Graphics/SVG/1.1/DTD/svg11.dtd">
<svg version="1.1" id="Layer_1" xmlns="http://www.w3.org/2000/svg" xmlns:xlink="http://www.w3.org/1999/xlink" x="0px" y="0px"
	 width="17.998px" height="18.008px" viewBox="0 0 17.998 18.008" style="enable-background:new 0 0 17.998 18.008;"
	 xml:space="preserve">
<path style="fill:#A3CA3A;" d="M8.999,0C4.029,0,0,4.031,0,9.004c0,4.973,4.029,9.004,8.999,9.004c4.97,0,8.999-4.031,8.999-9.004
	C17.998,4.031,13.969,0,8.999,0z M14.498,6.417l-6.17,6.044c-0.031,0.051-0.069,0.104-0.12,0.156l-0.289,0.289
	c-0.16,0.16-0.348,0.23-0.42,0.159L4.561,9.989C4.489,9.917,4.56,9.729,4.72,9.568l0.289-0.289c0.16-0.16,0.348-0.231,0.42-0.159
	l2.203,2.306l5.999-5.877c0.16-0.16,0.419-0.16,0.579,0l0.29,0.29C14.658,5.999,14.658,6.257,14.498,6.417z"/>
</svg>
